<svg viewBox="0 0 500 720" fill="none" xmlns="http://www.w3.org/2000/svg"><path d="M106.655 46.829C105.158 48.483 105 53.821 105 102.77c0 29.761-.373 54.343-.829 54.624-.456.282-1.438 3.121-2.181 6.309-2.292 9.828-6.15 15.314-19.712 28.03C52.601 219.557 45.148 229 40.633 244.5c-.801 2.75-2.04 7.025-2.753 9.5-.948 3.291-1.363 15.647-1.546 46-.247 40.853-1.719 218.065-2.921 351.75L32.799 720h3.493c3.751 0 5.278-1.867 3.943-4.822-.417-.923-.66-7.078-.541-13.678.12-6.6.44-36.3.711-66 .272-29.7.822-81.9 1.223-116 .4-34.1.76-102.95.8-153s.383-91.476.763-92.059.775-3.732.877-7 .839-8.641 1.638-11.941 1.682-7.125 1.964-8.5 1.146-3.918 1.921-5.651S51 237.907 51 237.552s2.017-4.142 4.482-8.415c5.074-8.797 16.781-21.213 27.878-29.564 16.85-12.682 25.931-22.363 29.083-31.006l2.597-7.119-.121-46.474c-.067-25.561-.455-50.074-.863-54.474s-.384-8.718.054-9.595c1.018-2.044-1.604-5.905-4.012-5.905-.983 0-2.533.823-3.443 1.829M255 288.096c-1.925.469-7.775.896-13 .949-10.873.111-26.152 4.354-31.464 8.739-3.068 2.533-10.815 14.912-14.032 22.422-1.011 2.362-3.113 7.058-4.671 10.437S189 337.29 189 337.907c0 .616-.52 2.127-1.156 3.357s-1.449 2.911-1.806 3.736c-1.111 2.565-9.861 30.181-11.565 36.5-.89 3.3-2.284 8.25-3.097 11-3.498 11.822-2.668 48.843 1.27 56.7.745 1.486 1.354 3.524 1.354 4.531 0 2.357 6.297 17.299 10.017 23.769 3.398 5.911 22.328 25.462 30.644 31.65 6.245 4.648 6.855 5.014 18.339 11.026 10.061 5.266 11.673 6.218 13.822 8.163 1.009.913 2.106 1.661 2.436 1.661s3.238 1.752 6.462 3.893c5.336 3.544 8.27 7.229 8.286 10.404.004.662.722 2.553 1.596 4.203 4.955 9.348 7.249 46.874 7.657 125.247l.241 46.248 2.614.002c2.345.003 2.678-.466 3.237-4.544.675-4.92.7-119.369.029-125.953-1.085-10.631-2.238-17.436-3.727-22-.897-2.75-1.636-6.231-1.642-7.736-.01-2.578-.923-7.2-3.188-16.148-1.429-5.642.45-7.364 5.657-5.189 2.071.865 5.397 1.558 7.392 1.54l3.628-.034-2.376-1.979c-1.307-1.089-3.557-2.201-5-2.472-5.571-1.045-18.79-5.8-22.192-7.981-1.962-1.259-6.332-3.684-9.711-5.389-3.378-1.706-9.497-5.241-13.596-7.857-4.099-2.615-9.858-6.207-12.797-7.982-2.94-1.774-8.027-5.937-11.305-9.25S203.986 491 203.281 491c-.704 0-1.281-.424-1.281-.943s-2.363-3.56-5.25-6.758-5.808-6.711-6.49-7.807c-3.042-4.887-8.132-15.89-7.685-16.613.271-.439.094-1.603-.394-2.588-2.821-5.698-4.117-9.232-4.688-12.791-1.226-7.636-.95-46.738.367-52 .688-2.75 1.501-6.467 1.806-8.259s.955-3.507 1.444-3.809c.49-.303.89-1.65.89-2.994 0-2.385 5.332-20.42 6.938-23.471.444-.843 1.142-3.093 1.55-5s1.342-4.592 2.075-5.967 2.958-6.775 4.944-12 5.22-12.753 7.186-16.73c3.222-6.515 3.924-7.295 7.101-7.891 2.382-.447 4.528-.146 6.616.928 1.699.874 5.115 2.092 7.59 2.706s5.942 1.559 7.705 2.1 5.138.897 7.5.792c2.362-.106 7.67.356 11.795 1.027 11.755 1.911 75.086-.013 78.946-2.399.417-.257 3.591-.733 7.053-1.056 3.463-.324 8.142-1.232 10.398-2.018 2.257-.787 5.114-1.436 6.349-1.444 2.616-.017 14.305-3.847 15.715-5.149.6-.555.165-1.684-1.16-3.01-2.178-2.178-10.454-4.108-24.801-5.783-3.85-.449-7.675-1.098-8.5-1.442-1.886-.785-11.011-1.292-37-2.057a7803 7803 0 0 1-31-.966c-5.775-.201-12.075.019-14 .488m48.881 4.344c-.209.203-17.031.664-37.381 1.024-20.35.359-38.238.796-39.75.97s-3.184.372-3.715.441-1.466 1.062-2.08 2.208c-1.666 3.113 1.037 5.449 7.834 6.77 20.411 3.967 91.979 5.1 106.689 1.688 3.655-.847 7.673-1.541 8.929-1.541s3.115-.919 4.132-2.043c1.809-1.999 1.79-2.097-.924-4.613-2.546-2.361-3.768-2.63-14.944-3.293-6.694-.397-14.921-.521-18.281-.276-3.371.246-7.011-.037-8.119-.63-1.104-.591-2.18-.908-2.39-.705m77.125 15.31c.004.962.679 3.039 1.5 4.614.822 1.576 1.494 3.502 1.494 4.282 0 1.818 3.823 13.192 5.322 15.835 1.069 1.884 1.667 3.844 4.728 15.519.649 2.475 1.762 5.891 2.473 7.59.711 1.7 2.044 7.325 2.963 12.5.918 5.176 2.295 11.839 3.059 14.808s1.201 5.704.97 6.077.221 5.244 1.004 10.824c2.52 17.953 1.057 33.641-5.147 55.201-1.143 3.972-7.995 17.034-11.802 22.5-1.916 2.75-4.594 6.626-5.952 8.612-1.358 1.987-3.877 4.687-5.596 6a249 249 0 0 0-6.825 5.473c-3.62 3.02-15.064 10.608-29.034 19.25-3.854 2.384-7.787 5.197-8.74 6.25S329.188 525 328.574 525c-2.075 0-18.268 17.458-21.796 23.5-3.525 6.036-6.321 14.812-5.264 16.523.313.506-.074 1.946-.86 3.199-1.717 2.738-3.309 9.938-4.151 18.778-.341 3.575-1.194 8.975-1.896 12-1.326 5.712-1.374 44.503-.117 93.5.73 28.456.55 27.5 5.177 27.5h3.628l-.858-9.75c-1.309-14.858-1.163-102.411.184-110.75.622-3.85 1.212-10.565 1.312-14.922s.544-8.633.987-9.5c.444-.868 1.109-4.269 1.479-7.558s1.331-6.986 2.137-8.215c.805-1.229 1.464-2.93 1.464-3.781 0-3.193 4.399-10.727 8.356-14.31 2.255-2.043 5.686-5.301 7.623-7.241 1.936-1.939 4.969-4.125 6.738-4.857s3.729-1.948 4.355-2.703 2.441-2.056 4.033-2.892a2387 2387 0 0 1 6.145-3.216c1.788-.933 5.63-3.633 8.539-6s5.834-4.311 6.5-4.318 5.711-4.153 11.211-9.214c22.679-20.87 32.153-37.227 37.016-63.912 2.481-13.614.623-38.938-4.503-61.361-.628-2.75-1.369-6.35-1.646-8s-.855-3.9-1.284-5c-1.2-3.072-4.988-15.635-5.729-19-.364-1.65-1.492-4.568-2.507-6.485S393 332.27 393 330.73s-.662-3.811-1.472-5.047-2.358-5.019-3.441-8.409c-2.852-8.929-7.099-14.641-7.081-9.524M60.815 345.523c-.859 1.44-.192 220.794.717 235.727.427 7.013 1.14 12.75 1.583 12.75 1.064 0 1.069-.544 1.057-124.5-.008-86.006-.281-108.761-1.392-115.977-.76-4.937-1.644-8.537-1.965-8m72.22 277.411c-2.444 4.567.778 8.848 5.351 7.109 3.492-1.327 4.215-3.478 2.201-6.551-1.984-3.027-6.069-3.329-7.552-.558m2.27 17.022c-2.958 1.803-3.143 2.23-2.5 5.746.804 4.393.93 20.39.195 24.798l-.5 3 5.878.304c5.345.276 5.806.14 5.088-1.5-.434-.992-.967-3.604-1.185-5.804-.217-2.2-.91-5.04-1.54-6.312-.869-1.754-.855-2.775.057-4.236 1.572-2.517 1.573-15.181.002-16.752-1.562-1.562-1.733-1.538-5.495.756m-43.062.201c-.875.875-.673 1.835.832 3.948 1.093 1.535 3.962 8.423 6.375 15.307 5.098 14.542 5.121 14.588 7.417 14.588 1.889 0 4.039-4.286 6.135-12.231.686-2.602 1.866-5.245 2.623-5.872.756-.628 1.375-1.707 1.375-2.397 0-1.658 2.604-7.428 4.618-10.233 1.532-2.134 1.482-2.279-1.147-3.278-3.453-1.313-6.883 1.232-6.064 4.498.565 2.251-3.731 12.513-5.239 12.513-1.295 0-3.58-2.921-2.853-3.648.329-.33-.261-2.286-1.312-4.347-1.632-3.198-1.715-4.017-.569-5.584 2.322-3.175.817-4.421-5.341-4.421-3.131 0-6.213.52-6.85 1.157m61.18.928c-1.44 1.592-1.541 2.362-.582 4.466 1.8 3.95 1.532 23.894-.341 25.449-3.036 2.52-1.647 3.521 4.606 3.319 6.995-.226 7.787-.66 6.106-3.351-.756-1.21-1.212-6.028-1.212-12.799 0-12.4.912-14.169 7.306-14.169 5.285 0 6.721 2.763 7.406 14.254.381 6.388.176 10.087-.646 11.622-1.621 3.029.149 5.129 4.306 5.109 5.297-.026 6.191-1.164 4.734-6.025-.742-2.477-1.13-7.967-.948-13.397.487-14.464-1.889-16.431-19.826-16.411-7.768.009-9.435.304-10.909 1.933m44.638 1.479c-7.065 6.382-8.864 16.367-4.39 24.361 3.275 5.851 6.542 7.576 14.345 7.571 7.916-.005 10.883-1.999 14.879-10.001 4.06-8.129-.373-20.708-8.495-24.101-6.227-2.602-11.89-1.85-16.339 2.17m3.534 4.864c-2.894 4.938-3.084 7.028-1.236 13.572 2.719 9.626 5.813 12.584 10.525 10.062 3.087-1.652 4.068-4.189 4.753-12.3.533-6.302.317-7.931-1.529-11.549-1.968-3.859-2.475-4.213-6.033-4.213-3.538 0-4.117.396-6.48 4.428m-24.101 37.582c-.343.555.305 2.191 1.441 3.635 1.869 2.376 2.065 3.988 2.065 16.99V720h8.5l.126-15.049c.11-13.207.344-15.209 1.912-16.355 1.083-.792 1.538-1.955 1.156-2.951-.727-1.894-14.078-2.451-15.2-.635m67.121 4.455c-2.11 3.22-2.038 4.842.311 6.968 2.749 2.488 5.346 1.601 6.436-2.199.751-2.618.581-3.639-.87-5.243-2.385-2.635-3.921-2.511-5.877.474m2.202 11.963c-1.475 1.298-3.275 2.56-4 2.803-1.074.361-1.086 1.085-.067 3.927.688 1.916 1.25 5.365 1.25 7.663 0 3.93.17 4.179 2.855 4.179 2.782 0 2.876-.174 3.632-6.75 1.653-14.388 1.137-16.051-3.67-11.822m-174.84 1.1c-.917 1.105-.823 2.475.421 6.126.881 2.586 1.602 6.197 1.602 8.024 0 3.024.269 3.322 3 3.322 2.959 0 3-.073 3-5.345 0-6.598 1.86-8.655 7.829-8.655 5.874 0 8.171 2.53 8.171 9v5h4.406c3.665 0 4.347-.295 4.052-1.75-.194-.962-.634-3.918-.977-6.567-.566-4.373-1.046-5.085-5.199-7.719-4.293-2.722-5.211-2.901-14.85-2.881-7.646.016-10.576.386-11.455 1.445m42.143 3.257c-2.972 2.972-5.394 6.572-6.392 9.5L106.121 720h5.045c3.923 0 5.706-.556 8.016-2.5 1.634-1.375 3.776-2.5 4.76-2.5.983 0 2.932-.9 4.331-2 1.398-1.1 2.971-2 3.495-2s2.657-1.157 4.74-2.57c4.656-3.16 5.455-2.311 5.477 5.82L142 720h8v-4.378c0-6.018 2.065-7.69 5.951-4.817 3.153 2.332 4.084 1.862 5.929-2.989 1.482-3.898-.977-5.44-9.88-6.194-6.344-.538-7.978-.344-10.599 1.264-3.291 2.019-8.542 1.733-13.085-.711-4.815-2.59-9.081-1.505-14.196 3.61m102.146.465c-4.17 4.271-6.266 8.223-6.266 11.815 0 1.627.717 1.935 4.5 1.935 2.475 0 4.5-.448 4.5-.995s2.137-1.942 4.75-3.1c7.675-3.4 8.602-3.908 11.68-6.397 3.654-2.956 2.546-4.773-3.903-6.397-8.176-2.059-10.69-1.541-15.261 3.139m-98.334 1.877c-1.081 2.021-.061 3.803 2.207 3.858 1.588.038 5.111-3.771 4.461-4.823-1.207-1.952-5.434-1.341-6.668.965m102.777-.503c-.39.39-.709 1.114-.709 1.609 0 1.221 5.006.526 5.281-.733.258-1.179-3.542-1.906-4.572-.876" fill="#722f37" fillRule="evenodd"/></svg>